<?xml version="1.0" standalone="no"?>
<!DOCTYPE svg PUBLIC "-//W3C//DTD SVG 20010904//EN"
 "http://www.w3.org/TR/2001/REC-SVG-20010904/DTD/svg10.dtd">
<svg version="1.0" xmlns="http://www.w3.org/2000/svg"
 width="259.000000pt" height="259.000000pt" viewBox="0 0 259.000000 259.000000"
 preserveAspectRatio="xMidYMid meet">
<metadata>
Created by potrace 1.14, written by Peter Selinger 2001-2017
</metadata>
<g transform="translate(0.000000,259.000000) scale(0.100000,-0.100000)"
fill="#000000" stroke="none">
<path d="M0 1295 l0 -1295 1295 0 1295 0 0 1295 0 1295 -1295 0 -1295 0 0
-1295z m1576 761 c3 -7 -18 -85 -47 -172 -29 -88 -78 -239 -111 -336 -32 -97
-58 -179 -58 -181 0 -14 38 -16 65 -3 16 8 86 38 155 67 123 51 216 91 295
129 139 66 331 148 364 155 37 8 45 -11 30 -72 -9 -32 -27 -60 -64 -98 -49
-51 -78 -68 -240 -140 -97 -44 -165 -75 -243 -111 -40 -19 -75 -34 -77 -34 -5
0 -218 -100 -325 -153 -57 -28 -67 -37 -78 -72 -7 -22 -35 -86 -63 -142 -27
-56 -49 -111 -49 -123 0 -15 13 -26 48 -41 61 -27 81 -45 103 -97 36 -83 21
-152 -49 -224 -90 -93 -192 -99 -279 -16 -47 46 -69 106 -60 167 5 44 12 56
83 173 72 117 99 180 110 259 3 26 2 49 -3 52 -13 8 -109 -16 -158 -39 -22
-11 -65 -38 -95 -61 -172 -132 -192 -141 -294 -129 -46 6 -59 13 -98 54 -57
58 -67 104 -43 189 55 188 301 218 376 46 10 -24 24 -43 31 -42 7 0 42 18 78
39 36 22 83 49 105 60 94 46 117 65 132 105 23 63 45 118 54 140 12 27 71 193
121 339 58 173 71 198 127 253 63 62 144 93 157 59z"/>
<path d="M1156 1165 c-6 -17 2 -45 13 -45 4 0 16 7 27 15 19 15 19 15 0 30
-11 8 -23 15 -27 15 -4 0 -9 -7 -13 -15z"/>
<path d="M515 1088 c-25 -24 -36 -45 -41 -74 -5 -36 -2 -45 26 -77 28 -32 38
-37 77 -37 82 0 133 48 133 123 0 52 -54 97 -115 97 -37 0 -52 -6 -80 -32z"/>
<path d="M1049 654 c-80 -51 -92 -156 -23 -207 51 -38 121 -22 159 37 33 50
15 140 -32 164 -37 20 -78 22 -104 6z"/>
</g>
</svg>
